<svg xmlns="http://www.w3.org/2000/svg" viewBox="0 0 251.68 251.74"><title>cheerful</title><g id="Layer_2" data-name="Layer 2"><g id="Layer_11" data-name="Layer 11"><g id="RwmXMy.tif"><path d="M135.1,251.56c-36.5,1.7-68-8.78-94.46-33.14C15.4,195.15,1.72,166.09.15,131.8c-1.71-37.46,11.12-69.74,37.72-96C60.32,13.67,87.8,1.62,119.42.16c34-1.58,64.17,8.76,89.7,31.42C235.55,55,249.88,84.66,251.52,120c1.62,34.8-9.5,65.37-33.08,91.08C195.86,235.66,167.53,248.73,135.1,251.56ZM117.35,11.24C87,14.08,61.62,26.1,41.4,48.09c-21.78,23.69-32,52-30.2,84.08s15,59,39.17,80.13,52.37,30.31,84.19,28c30-2.15,55.4-14.59,75.67-36.64,22.45-24.4,32.52-53.59,30-86.69C238,86.33,225.05,60.55,202.14,40.12,177.86,18.48,149.11,9.35,117.35,11.24Z"/><path d="M132.63,174.87c-3.14-.23-7.62-.36-12-.94a37.78,37.78,0,0,1-8.33-2.2,127,127,0,0,1-12.58-5.41,65.61,65.61,0,0,1-8.73-5.64c-3.4-2.49-6.63-5.22-10-7.82a5.53,5.53,0,0,1,.78-9.26c2.47-1.38,4.46-.58,6.39.87,4,3,7.79,6.33,12,9.11,4.34,2.9,8.86,5.59,14,7,2.64.75,5.23,1.68,7.89,2.26a30.38,30.38,0,0,0,11.08.58,69.85,69.85,0,0,0,8.58-1.46,50.52,50.52,0,0,0,11.71-5.24,69.54,69.54,0,0,0,10.92-8.2c2.64-2.37,5.27-4.77,7.66-7.39,2-2.16,7.52-1.35,8.57,2.44.76,2.75-.16,4.84-2.07,6.68-2.2,2.14-4.31,4.39-6.66,6.35a123.19,123.19,0,0,1-11,8.52,58.83,58.83,0,0,1-13.24,6.51A73.29,73.29,0,0,1,132.63,174.87Z"/><path d="M177.54,108.38c-.06,3.11-2.8,6.12-5.56,5.94-4.21-.27-5.59-2.31-5.7-5.84-.09-2.81,3-5.55,5.4-5.52C175.18,103,177.6,105.27,177.54,108.38Z"/><path d="M79.36,101.51A5.75,5.75,0,0,1,85.23,107c-.13,4.3-2.56,5.58-5.78,5.75-2.83.15-5.8-3.4-5.59-5.66C74.15,103.93,76.48,101.41,79.36,101.51Z"/></g></g></g></svg>