<svg xmlns="http://www.w3.org/2000/svg" viewBox="0 0 251.83 251.72"><title>relaxed</title><g id="Layer_2" data-name="Layer 2"><g id="Layer_11" data-name="Layer 11"><g id="NZX7Vp.tif"><path d="M136.62,251.51C62.8,255.53,8,202.87.94,141.26c-4-35,4.76-66.78,26.86-94.23C48.4,21.44,75.35,5.86,108,1.35c38-5.25,72,4.84,100.91,30,23.95,20.81,38.17,47.47,41.9,79.08,4.23,35.75-5,68-28,95.81S169.57,248.83,136.62,251.51ZM126.84,11c-27,1.12-54.22,7.77-78.78,30.57-23.59,21.9-35.88,49.33-37,81.64-1.91,56.49,41.74,115.07,111.55,117.5,31.54,1.1,59.2-9.62,82.11-31.3,23.56-22.29,35.67-50,35.95-82.52.26-30.77-10.33-57.61-31.59-79.93C185.13,21.75,155.39,10.42,126.84,11Z"/><path d="M129.23,171.81a41,41,0,0,1-15.81-4.09A65.08,65.08,0,0,1,98.61,157.6a5.49,5.49,0,0,1,6.86-8.53c2.73,1.89,5.17,4.21,8,6,5.9,3.79,12.23,6.32,19.47,5.4a25.08,25.08,0,0,0,11.26-4.22c2.42-1.68,4.82-3.39,7.11-5.24,1.36-1.1,2.28-2.61,4.11-3.29a6.13,6.13,0,0,1,6.18,1.9,5.41,5.41,0,0,1-.33,7A61.89,61.89,0,0,1,151,165.11a39,39,0,0,1-15.63,6.13C133.31,171.52,131.26,171.62,129.23,171.81Z"/><path d="M61,90.54c2.84-.29,4.37,1.76,6,3.54,3,3.26,6.29,5.88,10.6,7.09a13.58,13.58,0,0,0,9.13-.8c4.43-1.81,7.74-5.05,11.13-8.22a5.45,5.45,0,0,1,8.55,2.07c.94,2.47.28,4.35-1.41,6.25A42.11,42.11,0,0,1,92.42,110a23.9,23.9,0,0,1-11.66,2.73c-10.72-.39-18.27-6.33-24.47-14.36C54,95.42,56.91,90.86,61,90.54Z"/><path d="M156.06,91.19a25.67,25.67,0,0,1,3.63,2c3.31,2.56,6.77,4.93,10.84,6a12.66,12.66,0,0,0,10.6-1.75,27.25,27.25,0,0,0,6.27-6.18,5.71,5.71,0,0,1,9-.33c1.47,2,1.82,4.77.16,6.64a82.16,82.16,0,0,1-8.58,8.52,20.81,20.81,0,0,1-13.08,4.64,23.5,23.5,0,0,1-12-2.69,92.33,92.33,0,0,1-10.26-6.61c-2.54-1.85-2.71-3.59-2-6.29.48-1.93,2.25-3.44,5.27-3.54Z"/></g></g></g></svg>