<svg xmlns="http://www.w3.org/2000/svg" viewBox="0 0 251.68 251.74"><title>sad</title><g id="Layer_2" data-name="Layer 2"><g id="Layer_11" data-name="Layer 11"><g id="uoFzAg.tif"><path d="M135.08,251.56c-36.48,1.7-68-8.78-94.44-33.14C15.4,195.15,1.72,166.1.15,131.8c-1.71-37.46,11.12-69.74,37.72-96C60.32,13.67,87.8,1.62,119.42.16c34-1.58,64.17,8.76,89.7,31.42C235.55,55,249.88,84.66,251.52,120c1.62,34.8-9.5,65.37-33.08,91.08C195.86,235.66,167.53,248.73,135.08,251.56ZM118.77,11.15c-22,1.91-40.42,8.21-57.07,19.47A114.06,114.06,0,0,0,22,76.77a111.2,111.2,0,0,0-10.84,55.39c1.9,30.69,14,56.92,36.6,77.82,24.43,22.58,53.62,32.71,86.8,30.34,30-2.14,55.41-14.59,75.68-36.62,22.45-24.41,32.52-53.59,30.05-86.69C238,86.34,225.06,60.56,202.15,40.13,177.87,18.48,149.12,9.35,118.77,11.15Z"/><path d="M128.78,144c3.3.25,6.62.33,9.9.79a38.37,38.37,0,0,1,8.67,1.93,82.33,82.33,0,0,1,12.67,6,105.25,105.25,0,0,1,11.74,8.58,5.4,5.4,0,0,1-.78,9.24c-2.67,1.17-4.35.93-7.58-1.88a62.59,62.59,0,0,0-16.68-10.47,35.39,35.39,0,0,0-12.84-2.92,38.74,38.74,0,0,0-15.25,2.71c-7.16,2.78-13.1,7.29-18.89,12.15-2.34,2-7.15.94-8.22-2.58a5.87,5.87,0,0,1,2.13-6.77c5.31-4.26,10.64-8.41,16.88-11.32a52.17,52.17,0,0,1,15.71-4.79c.84-.1,1.66-.29,2.49-.44Z"/><path d="M177.54,108.37c-.06,3.12-2.79,6.13-5.55,5.95-4.2-.27-5.58-2.27-5.71-5.82-.1-2.81,3-5.56,5.39-5.54C175.16,103,177.59,105.26,177.54,108.37Z"/><path d="M79.39,101.51A5.81,5.81,0,0,1,85.24,107a5.58,5.58,0,0,1-5.66,5.79c-2.83,0-5.94-3.36-5.72-5.76C74.15,103.91,76.5,101.4,79.39,101.51Z"/></g></g></g></svg>